<?xml version="1.0" encoding="utf-8"?>
<!-- Generator: Adobe Illustrator 21.1.0, SVG Export Plug-In . SVG Version: 6.00 Build 0)  -->
<svg fill="#000000" width="40" height="40" version="1.1" id="Layer_1" xmlns="http://www.w3.org/2000/svg" xmlns:xlink="http://www.w3.org/1999/xlink" x="0px" y="0px"
	 viewBox="0 0 40 40" style="enable-background:new 0 0 40 40;" xml:space="preserve">
<g>
	<path d="M21.6,12.9c-0.9-1.1-2.3-1.9-4.2-2.3c1.3-0.6,2.1-1,2.3-1.2c0.7-0.5,1.1-1,1.5-1.6c0.3-0.6,0.5-1.3,0.5-2s-0.1-1.3-0.3-1.9
		c-0.2-0.6-0.6-1.1-1-1.6c-0.5-0.5-1-0.9-1.6-1.2s-1.1-0.5-1.5-0.6c-1.1-0.3-2.1-0.4-3-0.4h-1.2c-0.2,0-0.4,0-0.6,0
		c-0.2,0-0.3,0-0.3,0c-0.1,0-0.1,0-0.2,0c-0.1,0-0.2,0-0.2,0L11,0L5.1,0.2l-4,0.1l0.1,1.3C2,1.7,2.6,1.8,2.9,1.8
		C3.4,1.8,3.8,1.9,4,2c0.1,0.1,0.2,0.1,0.2,0.2C4.3,2.5,4.3,3,4.3,3.9c0,1.5,0.1,3.6,0.1,6.3V18c0,1.3,0,2.3-0.1,3
		c0,0.2-0.2,0.5-0.3,0.8c-0.5,0.2-1.1,0.4-1.9,0.5c-0.2,0-0.6,0.1-1.1,0.2L1,24c2.5-0.1,3.9-0.1,4.2-0.2c2.2-0.1,3.8-0.2,4.7-0.2
		l3.1,0.1c1.2,0,2.2,0,3.1-0.2c1.4-0.2,2.4-0.6,3.2-0.9c0.8-0.4,1.5-0.9,2.2-1.7c0.5-0.6,0.9-1.2,1.1-1.8c0.3-0.9,0.5-1.7,0.5-2.5
		C23,15.2,22.5,14,21.6,12.9z M9.3,1.8c0.8-0.1,1.5-0.2,2-0.2c1.8,0,3.1,0.4,4,1.2s1.3,1.8,1.3,2.9c0,1.7-0.5,2.8-1.4,3.5
		s-2.3,1-4.1,1c-0.7,0-1.3,0-1.7-0.1c0-0.4,0-0.8,0-1.2V7.4c0-1.6,0-3.1-0.1-4.4C9.4,2.7,9.3,2.3,9.3,1.8z M17.1,19.8
		c-0.4,0.7-1,1.3-1.9,1.8c-0.9,0.4-2,0.6-3.4,0.6c-0.7,0-1.4-0.2-2.2-0.5c-0.1-0.3-0.2-0.5-0.2-0.7v-4.2v-2.7v-2.2
		c0.3-0.1,0.8-0.2,1.6-0.2c1.7,0,3,0.2,3.9,0.5s1.6,1,2.2,2c0.4,0.7,0.6,1.6,0.6,2.8C17.7,18.2,17.5,19.1,17.1,19.8z"/>
</g>
</svg>
