<?xml version="1.0" encoding="utf-8"?>
<!-- Generator: Adobe Illustrator 21.1.0, SVG Export Plug-In . SVG Version: 6.00 Build 0)  -->
<svg fill="#000000" width="40" height="40" version="1.1" id="Layer_1" xmlns="http://www.w3.org/2000/svg" xmlns:xlink="http://www.w3.org/1999/xlink" x="0px" y="0px"
	 viewBox="0 0 40 40" style="enable-background:new 0 0 40 40;" xml:space="preserve">
<g>
	<g>
		<path d="M3.3,17.5c-0.9,0-1.7,0.3-2.3,1c-0.6,0.6-1,1.4-1,2.3s0.3,1.7,1,2.3c0.6,0.6,1.4,1,2.3,1s1.7-0.3,2.3-1
			c0.6-0.6,1-1.4,1-2.3s-0.3-1.7-1-2.3C5,17.8,4.2,17.5,3.3,17.5z"/>
		<path d="M10.8,13.2c-1.3-1.3-2.8-2.3-4.4-3.1C4.7,9.3,3,8.9,1.2,8.7H1.1C0.8,8.7,0.6,8.8,0.4,9C0.1,9.2,0,9.5,0,9.8v2.3
			c0,0.3,0.1,0.5,0.3,0.7s0.4,0.3,0.7,0.3c2.6,0.3,4.8,1.3,6.7,3.1c1.8,1.8,2.9,4.1,3.1,6.7c0,0.3,0.1,0.5,0.3,0.7s0.4,0.3,0.7,0.3
			h2.3c0.3,0,0.6-0.1,0.8-0.4c0.2-0.2,0.3-0.5,0.3-0.8c-0.1-1.8-0.6-3.6-1.4-5.2C13.1,15.9,12.1,14.5,10.8,13.2z"/>
		<path d="M22,14.3c-1.2-2.7-2.9-5.1-5-7.3c-2.1-2.1-4.5-3.8-7.3-5C7,0.8,4.1,0.1,1.1,0l0,0C0.8,0,0.5,0.1,0.3,0.3S0,0.8,0,1.1v2.4
			C0,3.8,0.1,4,0.3,4.2C0.5,4.5,0.7,4.6,1,4.6c2.4,0.1,4.8,0.7,7,1.7s4.1,2.3,5.7,3.9s2.9,3.5,3.9,5.7s1.6,4.5,1.7,7
			c0,0.3,0.1,0.5,0.3,0.7c0.2,0.2,0.5,0.3,0.8,0.3h2.4c0.3,0,0.6-0.1,0.8-0.3c0.2-0.2,0.3-0.5,0.3-0.8C23.8,19.9,23.2,17,22,14.3z"
			/>
	</g>
</g>
</svg>
