<?xml version="1.0" encoding="utf-8"?>
<!-- Generator: Adobe Illustrator 21.1.0, SVG Export Plug-In . SVG Version: 6.00 Build 0)  -->
<svg fill="#000000" width="24" height="24" version="1.1" id="Capa_1" xmlns="http://www.w3.org/2000/svg" xmlns:xlink="http://www.w3.org/1999/xlink" x="0px" y="0px"
	 viewBox="0 0 24 24" style="enable-background:new 0 0 24 24;" xml:space="preserve">
<g>
	<path d="M22.4,6.3C21.3,4.4,19.9,3,18,1.9c-1.8-1.1-3.8-1.6-6-1.6c-2.2,0-4.2,0.5-6,1.6C4.1,3,2.7,4.4,1.6,6.3
		C0.5,8.1,0,10.1,0,12.3c0,2.6,0.8,5,2.3,7.1c1.5,2.1,3.5,3.5,5.9,4.3c0.3,0.1,0.5,0,0.6-0.1C9,23.4,9,23.3,9,23.1c0,0,0-0.3,0-0.8
		c0-0.5,0-1,0-1.4l-0.4,0.1C8.4,21,8.1,21,7.8,21c-0.3,0-0.7,0-1.1-0.1c-0.4-0.1-0.7-0.2-1-0.5c-0.3-0.2-0.6-0.6-0.7-1l-0.2-0.4
		c-0.1-0.2-0.3-0.5-0.5-0.8c-0.2-0.3-0.5-0.5-0.7-0.6l-0.1-0.1c-0.1-0.1-0.1-0.1-0.2-0.2c-0.1-0.1-0.1-0.1-0.1-0.2
		c0-0.1,0-0.1,0.1-0.2C3.3,17,3.5,17,3.7,17L4,17c0.2,0,0.5,0.2,0.8,0.4c0.3,0.2,0.6,0.5,0.8,0.8c0.2,0.4,0.5,0.8,0.9,1
		c0.3,0.2,0.7,0.3,1,0.3c0.3,0,0.6,0,0.9-0.1c0.2-0.1,0.5-0.1,0.7-0.2c0.1-0.7,0.3-1.2,0.8-1.6c-0.6-0.1-1.1-0.2-1.6-0.3
		c-0.5-0.1-1-0.3-1.5-0.6c-0.5-0.3-0.9-0.6-1.3-1c-0.3-0.4-0.6-1-0.8-1.6c-0.2-0.7-0.3-1.5-0.3-2.3c0-1.3,0.4-2.3,1.2-3.2
		c-0.4-0.9-0.3-2,0.1-3.2C6,5.2,6.4,5.2,7,5.5c0.6,0.2,1,0.4,1.3,0.6C8.6,6.2,8.8,6.4,9,6.5c1-0.3,2-0.4,3-0.4s2,0.1,3,0.4l0.6-0.4
		C16,5.9,16.5,5.6,17,5.4c0.6-0.2,1-0.3,1.3-0.2c0.5,1.2,0.5,2.2,0.1,3.2c0.8,0.9,1.2,2,1.2,3.2c0,0.9-0.1,1.7-0.3,2.4
		c-0.2,0.7-0.5,1.2-0.8,1.6c-0.3,0.4-0.8,0.8-1.3,1c-0.5,0.3-1,0.5-1.5,0.6c-0.5,0.1-1,0.2-1.6,0.3c0.5,0.5,0.8,1.2,0.8,2.2v3.3
		c0,0.2,0.1,0.3,0.2,0.5c0.1,0.1,0.3,0.2,0.6,0.1c2.4-0.8,4.4-2.2,5.9-4.3c1.5-2.1,2.3-4.4,2.3-7.1C24,10.1,23.5,8.1,22.4,6.3z"/>
</g>
</svg>
