<?xml version="1.0" encoding="utf-8"?>
<!-- Generator: Adobe Illustrator 21.1.0, SVG Export Plug-In . SVG Version: 6.00 Build 0)  -->
<svg fill="#000000" width="24" height="24" version="1.1" id="Capa_1" xmlns="http://www.w3.org/2000/svg" xmlns:xlink="http://www.w3.org/1999/xlink" x="0px" y="0px"
	 viewBox="0 0 24 24" style="enable-background:new 0 0 24 24;" xml:space="preserve">
<g>
	<path d="M23.5,20.9l-4.9-4.9c1.2-1.7,1.8-3.6,1.8-5.8c0-1.4-0.3-2.7-0.8-3.9C19,5,18.3,3.9,17.3,3c-0.9-0.9-2-1.6-3.2-2.2
		C12.8,0.3,11.5,0,10.2,0C8.8,0,7.5,0.3,6.2,0.8C5,1.3,3.9,2.1,3,3C2.1,3.9,1.3,5,0.8,6.2C0.3,7.5,0,8.8,0,10.2
		c0,1.4,0.3,2.7,0.8,3.9c0.5,1.3,1.3,2.3,2.2,3.2c0.9,0.9,2,1.6,3.2,2.2c1.3,0.5,2.6,0.8,3.9,0.8c2.1,0,4-0.6,5.8-1.8l4.9,4.9
		c0.3,0.4,0.8,0.5,1.3,0.5c0.5,0,0.9-0.2,1.3-0.5c0.4-0.4,0.5-0.8,0.5-1.3C24,21.6,23.8,21.2,23.5,20.9z M14.7,14.7
		c-1.3,1.3-2.8,1.9-4.6,1.9c-1.8,0-3.3-0.6-4.6-1.9c-1.3-1.3-1.9-2.8-1.9-4.6c0-1.8,0.6-3.3,1.9-4.6c1.3-1.3,2.8-1.9,4.6-1.9
		c1.8,0,3.3,0.6,4.6,1.9c1.3,1.3,1.9,2.8,1.9,4.6C16.6,11.9,16,13.5,14.7,14.7z"/>
</g>
</svg>
