<?xml version="1.0" encoding="utf-8"?>
<!-- Generator: Adobe Illustrator 21.1.0, SVG Export Plug-In . SVG Version: 6.00 Build 0)  -->
<svg fill="#000000" width="40" height="40" version="1.1" id="Capa_1" xmlns="http://www.w3.org/2000/svg" xmlns:xlink="http://www.w3.org/1999/xlink" x="0px" y="0px"
	 viewBox="0 0 40 40" style="enable-background:new 0 0 40 40;" xml:space="preserve">
<g>
	<path d="M23.4,12.8L12.1,1.4c-0.4-0.4-0.9-0.7-1.6-1C9.8,0.1,9.2,0,8.6,0H2C1.5,0,1,0.2,0.6,0.6C0.2,1,0,1.5,0,2v6.6
		c0,0.6,0.1,1.2,0.4,1.9c0.3,0.7,0.6,1.2,1,1.6l11.3,11.3c0.4,0.4,0.9,0.6,1.4,0.6c0.5,0,1-0.2,1.4-0.6l7.8-7.8
		c0.4-0.4,0.6-0.9,0.6-1.4C24,13.6,23.8,13.2,23.4,12.8z M6.5,6.5C6.1,6.9,5.6,7.1,5.1,7.1c-0.6,0-1-0.2-1.4-0.6
		C3.2,6.1,3,5.6,3,5.1c0-0.6,0.2-1,0.6-1.4C4,3.2,4.5,3,5.1,3c0.6,0,1,0.2,1.4,0.6C6.9,4,7.1,4.5,7.1,5.1C7.1,5.6,6.9,6.1,6.5,6.5z"
		/>
</g>
</svg>
