<?xml version="1.0" encoding="utf-8"?>
<!-- Generator: Adobe Illustrator 21.1.0, SVG Export Plug-In . SVG Version: 6.00 Build 0)  -->
<svg fill="#000000" width="40" height="40" version="1.1" id="Capa_1" xmlns="http://www.w3.org/2000/svg" xmlns:xlink="http://www.w3.org/1999/xlink" x="0px" y="0px"
	 viewBox="0 0 40 40" style="enable-background:new 0 0 40 40;" xml:space="preserve">
<g>
	<path d="M24,4.6c-0.9,0.4-1.9,0.7-2.8,0.8c1.1-0.6,1.8-1.5,2.2-2.7c-1,0.6-2,1-3.1,1.2c-1-1-2.2-1.6-3.6-1.6
		c-1.4,0-2.5,0.5-3.5,1.4c-1,1-1.4,2.1-1.4,3.5c0,0.4,0,0.7,0.1,1.1c-2-0.1-3.9-0.6-5.7-1.5C4.4,5.9,2.9,4.7,1.7,3.2
		C1.2,3.9,1,4.7,1,5.6C1,6.5,1.2,7.3,1.6,8C2,8.7,2.5,9.3,3.2,9.7C2.4,9.7,1.7,9.5,1,9.1v0.1c0,1.2,0.4,2.2,1.1,3.1
		c0.7,0.9,1.7,1.5,2.8,1.7c-0.4,0.1-0.9,0.2-1.3,0.2c-0.3,0-0.6,0-0.9-0.1c0.3,1,0.9,1.8,1.7,2.4c0.8,0.6,1.8,1,2.9,1
		c-1.8,1.4-3.8,2.1-6.1,2.1c-0.4,0-0.8,0-1.2-0.1c2.3,1.5,4.8,2.2,7.6,2.2c1.7,0,3.4-0.3,4.9-0.8c1.5-0.6,2.8-1.3,3.9-2.2
		c1.1-0.9,2-2,2.8-3.2c0.8-1.2,1.4-2.5,1.8-3.8c0.4-1.3,0.6-2.6,0.6-4c0-0.3,0-0.5,0-0.6C22.5,6.4,23.3,5.6,24,4.6z"/>
</g>
</svg>
